<?xml version="1.0" encoding="UTF-8"?>
<svg width="36px" height="35px" viewBox="0 0 36 35" version="1.1" xmlns="http://www.w3.org/2000/svg" xmlns:xlink="http://www.w3.org/1999/xlink">
    <title>Path</title>
    <g id="Designs" stroke="none" stroke-width="1" fill="none" fill-rule="evenodd">
        <g id="Desktop/Home/Light" transform="translate(-670, -477)" fill="#032042">
            <g id="About" transform="translate(454, 112.3057)">
                <g id="github-mark" transform="translate(216, 364.6943)">
                    <path d="M18.0148941,0 C8.05312303,0 0,8.02079979 0,17.9436229 C0,25.8754647 5.15991348,32.5896033 12.3180812,34.9659475 C13.2130365,35.1445926 13.5408549,34.5798554 13.5408549,34.1048053 C13.5408549,33.6888175 13.511355,32.262938 13.511355,30.7772671 C8.50004757,31.8469502 7.45648614,28.6382657 7.45648614,28.6382657 C6.65113696,26.558691 5.45786318,26.0242141 5.45786318,26.0242141 C3.81766485,24.9249999 5.57733806,24.9249999 5.57733806,24.9249999 C7.3967487,25.0438536 8.35144148,26.7668672 8.35144148,26.7668672 C9.96177108,29.4997725 12.5566622,28.7275882 13.6005924,28.2521735 C13.7495672,27.0935325 14.227098,26.2914526 14.7341287,25.8459336 C10.7372515,25.4299457 6.53203083,23.8852126 6.53203083,16.9927935 C6.53203083,15.0320726 7.2474051,13.4279126 8.38094145,12.1803137 C8.20209788,11.7347947 7.57559227,9.8925628 8.56015376,7.42689603 C8.56015376,7.42689603 10.081246,6.95148135 13.5109862,9.26876333 C14.97938,8.87598571 16.4937107,8.67617727 18.0148941,8.67449498 C19.5359863,8.67449498 21.0865785,8.88267119 22.5184333,9.26876333 C25.9485423,6.95148135 27.4696345,7.42689603 27.4696345,7.42689603 C28.454196,9.8925628 27.8273216,11.7347947 27.648478,12.1803137 C28.8118831,13.4279126 29.4977574,15.0320726 29.4977574,16.9927935 C29.4977574,23.8852126 25.2925367,25.40005 21.2657908,25.8459336 C21.9221651,26.4103062 22.4885645,27.4796247 22.4885645,29.1731072 C22.4885645,31.5793471 22.4590646,33.510537 22.4590646,34.1044407 C22.4590646,34.5798554 22.7872517,35.1445926 23.6818383,34.9663121 C30.840006,32.5892387 36,25.8754647 36,17.9436229 C36.0294195,8.02079979 27.9467965,0 18.0148941,0 Z" id="Path"></path>
                </g>
            </g>
        </g>
    </g>
</svg>